<svg id="SvgjsSvg1001" width="288" height="288" xmlns="http://www.w3.org/2000/svg" version="1.1" xmlns:xlink="http://www.w3.org/1999/xlink" xmlns:svgjs="http://svgjs.com/svgjs"><defs id="SvgjsDefs1002"></defs><g id="SvgjsG1008" transform="matrix(1,0,0,1,0,0)"><svg xmlns="http://www.w3.org/2000/svg" enable-background="new 0 0 64 64" viewBox="0 0 64 64" width="288" height="288"><path fill="#ffba08" d="M19.93 64h4.52V48.83c0-.41.33-.74.74-.74s.74.33.74.74V64h5.33V48.83c0-.41.33-.74.74-.74.41 0 .74.33.74.74V64h5.33V48.83c0-.41.33-.74.74-.74.41 0 .74.33.74.74V64h4.52V43.65H19.93V64zM26.49 31.78c0-.41.33-.74.74-.74.41 0 .74.33.74.74v10.39h7.83V31.78c0-.41.33-.74.74-.74.41 0 .74.33.74.74v10.39h5.29V27.24H21.21v14.93h5.28V31.78z" class="color282f63 svgShape"></path><rect width="14.07" height="6.19" x="24.97" y="19.57" fill="#ffba08" class="color282f63 svgShape"></rect><path fill="#ffba08" d="M37.08,14.7l-3.7-4.18V1.37c0-0.76-0.62-1.37-1.37-1.37c-0.76,0-1.37,0.62-1.37,1.37v9.14l-3.72,4.19v3.38
		h10.16V14.7z" class="color282f63 svgShape"></path><rect width="8.24" height="13.06" x="45.55" y="50.94" fill="#ffba08" class="color282f63 svgShape"></rect><rect width="8.24" height="13.06" x="10.21" y="50.94" fill="#ffba08" class="color282f63 svgShape"></rect></svg></g></svg>