<svg width="32" height="32" viewBox="0 0 32 32" fill="none" xmlns="http://www.w3.org/2000/svg">
<path fill-rule="evenodd" clip-rule="evenodd" d="M3 8.00018L13.5 18.9767V27.5002H9C8.93379 27.4993 8.86806 27.5116 8.80664 27.5363C8.74522 27.5611 8.68932 27.5978 8.64219 27.6443C8.59506 27.6909 8.55764 27.7462 8.5321 27.8073C8.50656 27.8684 8.49341 27.934 8.49341 28.0002C8.49341 28.0664 8.50656 28.132 8.5321 28.1931C8.55764 28.2541 8.59506 28.3096 8.64219 28.3561C8.68932 28.4027 8.74522 28.4393 8.80664 28.4641C8.86806 28.4888 8.93379 28.501 9 28.5002H19C19.0662 28.501 19.1319 28.4888 19.1934 28.4641C19.2548 28.4393 19.3107 28.4027 19.3578 28.3561C19.4049 28.3096 19.4424 28.2541 19.4679 28.1931C19.4934 28.132 19.5066 28.0664 19.5066 28.0002C19.5066 27.934 19.4934 27.8684 19.4679 27.8073C19.4424 27.7462 19.4049 27.6909 19.3578 27.6443C19.3107 27.5978 19.2548 27.5611 19.1934 27.5363C19.1319 27.5116 19.0662 27.4993 19 27.5002H14.5V18.9767L25 8.00018H9.99219L12.0508 10.1506C12.0702 10.171 12.0878 10.1932 12.1035 10.2166C12.3821 10.0759 12.6898 10.0022 13.0019 10.0016C13.532 10.0022 14.0402 10.2132 14.4149 10.5882C14.7895 10.9632 15 11.4716 15 12.0016C14.9995 12.3422 14.9121 12.6771 14.746 12.9744C14.7692 12.9922 14.7908 13.0119 14.8105 13.0334L15.5859 13.8439L15.9746 14.2502C16.0204 14.2977 16.0564 14.3538 16.0805 14.4152C16.1045 14.4767 16.1162 14.5422 16.1149 14.6082C16.1135 14.6742 16.0991 14.7392 16.0725 14.7996C16.0459 14.86 16.0076 14.9146 15.9599 14.9601C15.9121 15.0057 15.8559 15.0414 15.7943 15.0651C15.7327 15.0889 15.6671 15.1002 15.6011 15.0984C15.5351 15.0967 15.4701 15.082 15.4099 15.0551C15.3496 15.0282 15.2953 14.9896 15.25 14.9416L14.8633 14.5353L14.0879 13.7228C14.0791 13.7135 14.0706 13.7038 14.0625 13.6938C13.7442 13.8938 13.3759 14.0002 13 14.0005C12.4696 14.0005 11.9608 13.7898 11.5858 13.4147C11.2107 13.0397 11 12.531 11 12.0005C11.0011 11.5957 11.125 11.2007 11.3555 10.8677C11.3461 10.8597 11.3369 10.8514 11.3282 10.8427L8.60942 8.00092L3 8.00018Z" fill="#FFBA08"/>
<path d="M24.5 3.00018C23.3262 3.0009 22.19 3.4146 21.2905 4.16876C20.391 4.92293 19.7855 5.96949 19.5801 7.12518H25C25.1715 7.12502 25.3394 7.17528 25.4826 7.26971C25.6258 7.36415 25.7381 7.49857 25.8055 7.65631C25.8729 7.81405 25.8925 7.98815 25.8618 8.15692C25.8311 8.32569 25.7515 8.48177 25.6328 8.60565L22.0488 12.3517C22.7966 12.7749 23.6408 12.9982 24.5 13.0002C25.8261 13.0001 27.0979 12.4734 28.0355 11.5357C28.9732 10.598 29.5 9.32624 29.5 8.00018C29.5 6.67413 28.9732 5.40234 28.0355 4.46466C27.0979 3.52698 25.8261 3.00022 24.5 3.00018V3.00018Z" fill="#FFBA08"/>
<path fill-rule="evenodd" clip-rule="evenodd" d="M4.97265 3.00206C4.54097 3.02206 4.3361 3.54324 4.63866 3.85174L7.65233 7.00017H9.03515L5.36132 3.16027C5.27282 3.06527 5.15098 3.00876 5.02147 3.00206C5.00517 3.00126 4.98887 3.00126 4.97267 3.00206H4.97265Z" fill="#FFBA08"/>
</svg>
