<svg width="64" height="64" viewBox="0 0 64 64" fill="none" xmlns="http://www.w3.org/2000/svg">
<g clip-path="url(#clip0)">
<path d="M9.00001 31.7V53.3H12.9V31.7H9.00001ZM61.6 61H2.70001C1.90001 61 1.30001 61.6 1.30001 62.3C1.30001 63 1.90001 63.6 2.70001 63.6H61.6C62.4 63.6 63 63 63 62.3C63 61.6 62.3 61 61.6 61ZM51.3 31.7V53.3H55.2V31.7H51.3ZM49.2 29.6H57.3C57.7 29.6 58 29.3 58 28.9V26.2H6.00001V28.9C6.00001 29.3 6.30001 29.6 6.70001 29.6H15C15.4 29.6 15.7 29.3 15.7 28.9V28.4C15.7 27.8 16.2 27.3 16.8 27.3C17.4 27.3 17.9 27.8 17.9 28.4V28.9C17.9 30.5 16.6 31.8 15.1 31.8V53.4C16.7 53.4 17.9 54.7 17.9 56.3V56.8C17.9 57.4 17.4 57.9 16.8 57.9C16.2 57.9 15.7 57.4 15.7 56.8V56.3C15.7 55.9 15.4 55.5 15 55.5H14H7.90001H6.90001C6.50001 55.5 6.20001 55.8 6.20001 56.3V59H58.2V56.3C58.2 55.9 57.9 55.5 57.5 55.5H50.4H49.4C49 55.5 48.7 55.8 48.7 56.3V56.8C48.7 57.4 48.2 57.9 47.6 57.9C47 57.9 46.5 57.4 46.5 56.8V56.3C46.5 54.7 47.8 53.4 49.3 53.4V31.7C47.7 31.7 46.5 30.4 46.5 28.8V28.3C46.5 27.7 47 27.2 47.6 27.2C48.2 27.2 48.7 27.7 48.7 28.3V28.8C48.5 29.2 48.8 29.6 49.2 29.6ZM42.1 55.6C42.1 56.2 41.6 56.7 41 56.7C40.4 56.7 39.9 56.2 39.9 55.6V47.1C39.9 45 39.1 43 37.6 41.5C36.1 40 34.1 39.2 32 39.2C27.6 39.2 24 42.8 24 47.2V55.7C24 56.3 23.5 56.8 22.9 56.8C22.3 56.8 21.8 56.3 21.8 55.7V47.2C21.8 41.6 26.3 37.1 31.9 37.1C34.6 37.1 37.1 38.1 39 40.1C40.9 42 42 44.6 42 47.2L42.1 55.6ZM63.5 22L32.6 0.499988C32.4 0.399988 32.2 0.299988 32 0.299988C31.8 0.299988 31.6 0.399988 31.4 0.499988L0.500007 22C-0.0999931 22.4 6.96629e-06 23.1 0.100007 23.2C0.100007 23.4 0.400007 24 1.10001 24H62.9C63.7 24 63.9 23.4 64 23.2C64 23.1 64.1 22.4 63.5 22ZM32 20.3C28.4 20.3 25.5 17.4 25.5 13.8C25.5 10.2 28.4 7.29999 32 7.29999C35.6 7.29999 38.5 10.2 38.5 13.8C38.5 17.3 35.6 20.3 32 20.3ZM32 9.29999C29.6 9.29999 27.6 11.3 27.6 13.7C27.6 16.1 29.6 18.1 32 18.1C34.4 18.1 36.4 16.1 36.4 13.7C36.4 11.3 34.4 9.29999 32 9.29999Z" fill="#FFBA08"/>
</g>
<defs>
<clipPath id="clip0">
<rect width="64" height="64" fill="white"/>
</clipPath>
</defs>
</svg>
