<svg width="32" height="32" viewBox="0 0 32 32" fill="none" xmlns="http://www.w3.org/2000/svg">
<path d="M2.32124 20.0076C2.22374 20.0172 2.13115 20.0552 2.05504 20.1168C1.97893 20.1785 1.92264 20.2611 1.89311 20.3546C1.87799 20.3969 1.859 20.4335 1.83405 20.4724C1.78266 20.5518 1.70004 20.6418 1.5757 20.7234C1.32853 20.8848 0.941998 21.0039 0.505367 21.0039C0.439449 21.0039 0.374115 21.0169 0.313214 21.0421C0.252314 21.0673 0.196969 21.1042 0.150358 21.1508C0.103747 21.1975 0.0667051 21.2528 0.0414793 21.3137C0.0162536 21.3746 0.00341797 21.4399 0.00341797 21.5059C0.00341797 21.5718 0.0162536 21.637 0.0414793 21.6979C0.0667051 21.7588 0.103747 21.8141 0.150358 21.8607C0.196969 21.9074 0.252314 21.9444 0.313214 21.9696C0.374115 21.9949 0.439449 22.0078 0.505367 22.0078C1.11902 22.0078 1.68051 21.8457 2.12194 21.5575C2.3419 21.4128 2.53425 21.2363 2.67556 21.0187C2.67558 21.0161 2.67558 21.0136 2.67556 21.0111C2.74661 20.9007 2.80618 20.7843 2.8451 20.6641C2.87176 20.5849 2.87829 20.5002 2.86379 20.4179C2.84928 20.3355 2.81442 20.2582 2.76229 20.1929C2.71016 20.1275 2.64234 20.0763 2.56529 20.0438C2.48824 20.0114 2.40442 19.9988 2.32124 20.0072V20.0076Z" fill="#FFBA08"/>
<path d="M2.29914 20.0076C2.22598 20.0175 2.15599 20.0435 2.09407 20.0837C2.03215 20.1239 1.97995 20.1774 1.94113 20.2402C1.90232 20.303 1.8779 20.3736 1.86963 20.447C1.86135 20.5204 1.86931 20.5947 1.89315 20.6645C1.93246 20.7847 1.98473 20.9011 2.05578 21.0115C2.05576 21.014 2.05576 21.0166 2.05578 21.0191C2.19713 21.2368 2.38928 21.4133 2.60917 21.5579C3.0506 21.8463 3.61969 22.0082 4.23335 22.0082C4.84705 22.0082 5.40826 21.8465 5.84969 21.5579C6.07041 21.4136 6.26215 21.2378 6.40354 21.0191C6.47346 20.9106 6.5334 20.7855 6.57309 20.6574C6.59309 20.5942 6.60038 20.5277 6.59454 20.4617C6.5887 20.3956 6.56995 20.3314 6.53918 20.2727C6.50841 20.214 6.46628 20.162 6.41531 20.1197C6.36433 20.0773 6.30541 20.0455 6.24207 20.026C6.17873 20.0065 6.11219 19.9998 6.04623 20.0062C5.98026 20.0126 5.9162 20.0319 5.85776 20.0632C5.79933 20.0944 5.74768 20.137 5.70575 20.1883C5.66382 20.2396 5.63245 20.2987 5.61348 20.3622C5.60214 20.3963 5.58713 20.4325 5.56181 20.473C5.51079 20.5516 5.42681 20.6429 5.30322 20.7238C5.05643 20.8852 4.66956 21.0043 4.23289 21.0043C3.79906 21.0043 3.40992 20.8837 3.16256 20.7238H3.15495C3.03363 20.6433 2.94723 20.5512 2.89659 20.473C2.87013 20.4337 2.85867 20.3969 2.84469 20.355C2.80953 20.2418 2.73528 20.1448 2.63524 20.0813C2.53519 20.0177 2.41585 19.9918 2.29845 20.008L2.29914 20.0076Z" fill="#FFBA08"/>
<path d="M6.02668 20.0076C5.95352 20.0175 5.88353 20.0435 5.82161 20.0837C5.75969 20.1239 5.70749 20.1774 5.66867 20.2402C5.62986 20.303 5.60544 20.3737 5.59716 20.447C5.58889 20.5204 5.59685 20.5947 5.62069 20.6645C5.66 20.7847 5.71227 20.9011 5.78332 21.0115C5.7833 21.014 5.7833 21.0166 5.78332 21.0191C5.92467 21.2368 6.11702 21.4134 6.33694 21.558C6.77837 21.8463 7.33985 22.0082 7.95351 22.0082C8.5672 22.0082 9.13603 21.8465 9.57746 21.558C9.79818 21.4136 9.98973 21.2378 10.1311 21.0191C10.201 20.9106 10.2534 20.7855 10.2935 20.6574C10.3191 20.5933 10.3312 20.5246 10.329 20.4557C10.3268 20.3867 10.31 20.3189 10.2803 20.2566C10.2506 20.1943 10.2084 20.1389 10.1562 20.0937C10.104 20.0486 10.0431 20.0148 9.97722 19.9943C9.91131 19.9739 9.84188 19.9674 9.7733 19.9751C9.70473 19.9828 9.63834 20.0045 9.57861 20.0391C9.51888 20.0736 9.467 20.1203 9.42614 20.1759C9.38527 20.2315 9.35639 20.2949 9.34125 20.3622C9.32991 20.3963 9.3149 20.4325 9.28958 20.473C9.23856 20.5516 9.14705 20.643 9.02384 20.7238C8.77667 20.8837 8.38738 21.0043 7.95351 21.0043C7.51688 21.0043 7.13035 20.8852 6.88318 20.7238C6.75884 20.6422 6.67599 20.5523 6.62459 20.473C6.59813 20.4337 6.57937 20.3969 6.56577 20.355C6.5308 20.2432 6.45756 20.1472 6.35908 20.0838C6.2606 20.0204 6.14314 19.9936 6.02691 20.008L6.02668 20.0076Z" fill="#FFBA08"/>
<path d="M9.75457 20.0076C9.68075 20.0166 9.60977 20.0419 9.54696 20.0817C9.48416 20.1215 9.43109 20.1748 9.39149 20.2377C9.35189 20.3007 9.32684 20.3716 9.31813 20.4455C9.30943 20.5193 9.31732 20.5942 9.3412 20.6646C9.38051 20.7848 9.4403 20.9012 9.51098 21.0115C9.51096 21.014 9.51096 21.0166 9.51098 21.0191C9.65195 21.2361 9.84279 21.413 10.0646 21.558C10.2846 21.7016 10.5365 21.8146 10.8101 21.8902C10.8737 21.9079 10.9402 21.913 11.0058 21.905C11.0713 21.8971 11.1347 21.8762 11.1921 21.8437C11.2496 21.8112 11.2999 21.7675 11.3405 21.7154C11.381 21.6633 11.4111 21.6038 11.4286 21.5401C11.4461 21.4764 11.4507 21.4099 11.4424 21.3444C11.4341 21.2789 11.4131 21.2157 11.3804 21.1584C11.3476 21.101 11.3037 21.0507 11.2514 21.0104C11.1992 20.97 11.1394 20.9404 11.0756 20.9232C10.8939 20.8729 10.7346 20.8049 10.6108 20.724C10.4876 20.6435 10.4044 20.5531 10.3522 20.473C10.3258 20.4337 10.3068 20.3971 10.2932 20.3551C10.2582 20.2434 10.1852 20.1474 10.0867 20.084C9.98827 20.0206 9.87057 19.9938 9.75434 20.0082L9.75457 20.0076ZM22.1261 20.0076C22.0286 20.0172 21.936 20.0552 21.8599 20.1169C21.7838 20.1785 21.7275 20.2612 21.698 20.3546C21.6829 20.3969 21.6639 20.4335 21.6389 20.4724C21.5868 20.5514 21.5023 20.644 21.3806 20.7234C21.2566 20.8043 21.0971 20.8727 20.9155 20.9226C20.8518 20.9398 20.792 20.9694 20.7398 21.0098C20.6875 21.0502 20.6436 21.1005 20.6108 21.1578C20.578 21.2151 20.5571 21.2783 20.5488 21.3438C20.5405 21.4093 20.5451 21.4759 20.5626 21.5395C20.5801 21.6032 20.6101 21.6628 20.6507 21.7149C20.6913 21.7669 20.7418 21.8106 20.7993 21.8431C20.8568 21.8756 20.9199 21.8965 20.9854 21.9045C21.051 21.9125 21.1175 21.9074 21.1811 21.8896C21.4547 21.8144 21.7068 21.701 21.9268 21.5574C22.1487 21.4123 22.3395 21.2354 22.4802 21.0186C22.4802 21.016 22.4802 21.0135 22.4802 21.011C22.5513 20.9006 22.6111 20.7842 22.65 20.664C22.6767 20.5848 22.683 20.5001 22.6684 20.4178C22.6539 20.3354 22.6191 20.2581 22.5669 20.1927C22.5148 20.1274 22.4472 20.0762 22.3702 20.0437C22.2931 20.0113 22.2091 19.9987 22.1259 20.0071L22.1261 20.0076Z" fill="#FFBA08"/>
<path d="M22.1038 20.0076C22.0306 20.0175 21.9606 20.0435 21.8987 20.0837C21.8368 20.1239 21.7844 20.1774 21.7455 20.2402C21.7067 20.303 21.6823 20.3736 21.674 20.447C21.6658 20.5204 21.6739 20.5947 21.6978 20.6645C21.7371 20.7847 21.7891 20.9011 21.8602 21.0115C21.8627 21.014 21.8653 21.0166 21.8678 21.0191C22.0091 21.2368 22.194 21.4133 22.414 21.5579C22.4166 21.558 22.4191 21.558 22.4216 21.5579C22.8631 21.8463 23.4246 22.0082 24.0382 22.0082C24.6519 22.0082 25.2134 21.8465 25.6548 21.5579C25.8755 21.4136 26.067 21.2378 26.2084 21.0191C26.2783 20.9106 26.3385 20.7855 26.3782 20.6574C26.3982 20.5942 26.4055 20.5277 26.3996 20.4617C26.3938 20.3956 26.3748 20.3314 26.344 20.2727C26.3133 20.214 26.2711 20.162 26.2202 20.1197C26.1692 20.0773 26.1105 20.0455 26.0472 20.026C25.9838 20.0065 25.9173 19.9998 25.8513 20.0062C25.7854 20.0126 25.7213 20.0319 25.6629 20.0632C25.6044 20.0944 25.5528 20.137 25.5108 20.1883C25.4689 20.2396 25.4375 20.2987 25.4186 20.3622C25.4072 20.3963 25.392 20.4325 25.3667 20.473C25.3157 20.5516 25.2319 20.6429 25.1083 20.7238C24.8615 20.8852 24.4744 21.0043 24.0378 21.0043C23.6011 21.0043 23.2148 20.8852 22.9677 20.7238C22.8433 20.6422 22.7533 20.5523 22.7019 20.473C22.6755 20.4337 22.664 20.3969 22.65 20.355C22.6149 20.2418 22.5406 20.1448 22.4406 20.0813C22.3405 20.0177 22.2212 19.9918 22.1038 20.008V20.0076Z" fill="#FFBA08"/>
<path d="M25.8316 20.0076C25.7584 20.0175 25.6885 20.0435 25.6265 20.0837C25.5646 20.1239 25.5124 20.1774 25.4736 20.2402C25.4348 20.303 25.4104 20.3736 25.4021 20.447C25.3938 20.5204 25.4018 20.5947 25.4256 20.6645C25.4649 20.7847 25.5172 20.9011 25.5883 21.0115C25.5882 21.014 25.5882 21.0166 25.5883 21.0191C25.7296 21.2368 25.9218 21.4133 26.1416 21.5579C26.5831 21.8463 27.1519 22.0082 27.7656 22.0082C28.3793 22.0082 28.9409 21.8465 29.3824 21.5579C29.6031 21.4136 29.7946 21.2378 29.936 21.0191C30.0059 20.9106 30.0659 20.7855 30.1056 20.6574C30.1256 20.5942 30.1328 20.5277 30.127 20.4617C30.1212 20.3956 30.1024 20.3314 30.0716 20.2727C30.0409 20.214 29.9988 20.162 29.9478 20.1197C29.8968 20.0773 29.8379 20.0455 29.7745 20.026C29.7112 20.0065 29.6447 19.9998 29.5787 20.0062C29.5127 20.0126 29.4487 20.0319 29.3902 20.0632C29.3318 20.0944 29.2801 20.137 29.2382 20.1883C29.1963 20.2396 29.1649 20.2987 29.146 20.3622C29.1346 20.3963 29.1196 20.4325 29.0943 20.473C29.0436 20.5516 28.9593 20.6429 28.8357 20.7238C28.5889 20.8852 28.202 21.0043 27.7654 21.0043C27.3315 21.0043 26.9424 20.8837 26.695 20.7238H26.6874C26.5661 20.6433 26.4801 20.5512 26.4291 20.473C26.4026 20.4337 26.3911 20.3969 26.3772 20.355C26.342 20.2418 26.2678 20.1448 26.1677 20.0813C26.0677 20.0177 25.9483 19.9918 25.8309 20.008L25.8316 20.0076Z" fill="#FFBA08"/>
<path d="M29.5594 20.0076C29.4862 20.0176 29.4162 20.0435 29.3543 20.0837C29.2924 20.124 29.2402 20.1775 29.2014 20.2403C29.1626 20.3031 29.1382 20.3737 29.1299 20.4471C29.1216 20.5204 29.1296 20.5947 29.1534 20.6646C29.1927 20.7848 29.245 20.9012 29.316 21.0115C29.316 21.014 29.316 21.0166 29.316 21.0191C29.4574 21.2368 29.6495 21.4134 29.8694 21.558C30.3109 21.8464 30.8725 22.0083 31.4862 22.0083C31.6194 22.0083 31.7469 21.9554 31.841 21.8612C31.9351 21.7671 31.9882 21.6394 31.9882 21.5063C31.9882 21.3732 31.9351 21.2454 31.841 21.1513C31.7469 21.0572 31.6194 21.0044 31.4862 21.0044C31.0496 21.0044 30.6628 20.8853 30.4157 20.7239C30.2913 20.6422 30.2091 20.5523 30.1573 20.4729C30.1309 20.4336 30.1119 20.397 30.0983 20.355C30.0633 20.2432 29.9903 20.1473 29.8918 20.0839C29.7933 20.0205 29.6756 19.9937 29.5594 20.0081V20.0076ZM6.95694 23.5065C6.83138 23.5211 6.71594 23.5828 6.634 23.679C6.55206 23.7753 6.5096 23.899 6.5152 24.0253C6.52081 24.1516 6.57407 24.2711 6.66422 24.3598C6.75436 24.4484 6.87487 24.4996 7.00123 24.503H7.99037C8.05934 24.5088 8.12879 24.5003 8.19428 24.4779C8.25978 24.4555 8.31979 24.4198 8.37075 24.3729C8.42171 24.3261 8.46241 24.2692 8.49024 24.2058C8.51807 24.1424 8.53245 24.074 8.53245 24.0048C8.53245 23.9355 8.51807 23.8671 8.49024 23.8037C8.46241 23.7404 8.42171 23.6834 8.37075 23.6366C8.31979 23.5898 8.25978 23.554 8.19428 23.5316C8.12879 23.5093 8.05934 23.5007 7.99037 23.5065H7.00123C6.9865 23.5059 6.97168 23.5059 6.95694 23.5065ZM1.45765 24.0011C1.32476 24.0073 1.19974 24.0659 1.11003 24.1642C1.02031 24.2624 0.973148 24.3921 0.979002 24.525C0.984856 24.658 1.04316 24.7832 1.14117 24.8731C1.23917 24.9631 1.36902 25.0105 1.50194 25.005H2.49108C2.6242 25.005 2.75172 24.952 2.84585 24.8579C2.93999 24.7638 2.99303 24.6361 2.99303 24.503C2.99303 24.3699 2.93999 24.2423 2.84585 24.1481C2.75172 24.054 2.6242 24.0011 2.49108 24.0011H1.50194C1.48721 24.0004 1.47239 24.0004 1.45765 24.0011ZM4.95653 26.0015C4.82365 26.0077 4.69861 26.0663 4.6089 26.1646C4.5192 26.2628 4.47203 26.3926 4.47788 26.5255C4.48373 26.6584 4.54205 26.7836 4.64004 26.8736C4.73804 26.9635 4.86791 27.0109 5.00082 27.0054H5.98995C6.12308 27.0054 6.2506 26.9525 6.34473 26.8583C6.43886 26.7642 6.4919 26.6366 6.4919 26.5034C6.4919 26.3703 6.43886 26.2427 6.34473 26.1485C6.2506 26.0544 6.12308 26.0015 5.98995 26.0015H5.00082C4.98609 26.0008 4.97126 26.0008 4.95653 26.0015ZM1.95222 28.0019C1.81911 28.0088 1.69409 28.0682 1.60482 28.1672C1.51556 28.2662 1.46924 28.3966 1.47611 28.5297C1.48297 28.6628 1.54253 28.7878 1.6415 28.8771C1.74048 28.9664 1.87077 29.0126 2.00389 29.0058H2.99303C3.12615 29.0058 3.2539 28.9529 3.34803 28.8587C3.44217 28.7646 3.49497 28.637 3.49497 28.5038C3.49497 28.3707 3.44217 28.2431 3.34803 28.149C3.2539 28.0548 3.12615 28.0019 2.99303 28.0019H2.00389C1.98664 28.001 1.96947 28.001 1.95222 28.0019ZM23.9494 23.5065C23.8234 23.5215 23.7077 23.5838 23.626 23.6808C23.5442 23.7778 23.5024 23.9023 23.509 24.029C23.5156 24.1557 23.5701 24.2751 23.6615 24.3631C23.7529 24.4511 23.8744 24.5012 24.0013 24.503H24.9904C25.0594 24.5088 25.1286 24.5003 25.1941 24.4779C25.2596 24.4555 25.3198 24.4198 25.3708 24.3729C25.4218 24.3261 25.4625 24.2692 25.4903 24.2058C25.5181 24.1424 25.5325 24.074 25.5325 24.0048C25.5325 23.9355 25.5181 23.8671 25.4903 23.8037C25.4625 23.7404 25.4218 23.6834 25.3708 23.6366C25.3198 23.5898 25.2596 23.554 25.1941 23.5316C25.1286 23.5093 25.0594 23.5007 24.9904 23.5065H24.0013C23.984 23.5056 23.9666 23.5056 23.9494 23.5065ZM29.4561 24.0011C29.3231 24.0072 29.198 24.0658 29.1082 24.164C29.0184 24.2623 28.9713 24.3921 28.9772 24.525C28.983 24.658 29.0413 24.7833 29.1393 24.8733C29.2374 24.9632 29.3674 25.0106 29.5003 25.005H30.4895C30.6226 25.005 30.7501 24.952 30.8443 24.8579C30.9384 24.7638 30.9914 24.6361 30.9914 24.503C30.9914 24.3699 30.9384 24.2423 30.8443 24.1481C30.7501 24.054 30.6226 24.0011 30.4895 24.0011H29.5003C29.4856 24.0004 29.4708 24.0004 29.4561 24.0011ZM25.9498 26.0015C25.8167 26.0084 25.6919 26.0679 25.6026 26.1669C25.5134 26.2659 25.4671 26.3962 25.4739 26.5293C25.4808 26.6624 25.5401 26.7874 25.6391 26.8767C25.738 26.9659 25.8684 27.0122 26.0015 27.0054H26.9906C27.1237 27.0054 27.2515 26.9525 27.3456 26.8583C27.4397 26.7642 27.4926 26.6366 27.4926 26.5034C27.4926 26.3703 27.4397 26.2427 27.3456 26.1485C27.2515 26.0544 27.1237 26.0015 26.9906 26.0015H26.0015C25.9842 26.0006 25.967 26.0006 25.9498 26.0015ZM28.9541 28.0019C28.821 28.0088 28.696 28.0682 28.6067 28.1672C28.5174 28.2662 28.4711 28.3966 28.478 28.5297C28.4849 28.6628 28.5444 28.7878 28.6434 28.8771C28.7424 28.9664 28.8727 29.0126 29.0058 29.0058H29.9875C30.1207 29.0058 30.2484 28.9529 30.3425 28.8587C30.4367 28.7646 30.4895 28.637 30.4895 28.5038C30.4895 28.3707 30.4367 28.2431 30.3425 28.149C30.2484 28.0548 30.1207 28.0019 29.9875 28.0019H29.0058C28.9885 28.001 28.9714 28.001 28.9541 28.0019V28.0019Z" fill="#FFBA08"/>
<path d="M28.3553 31.9929C26.1342 29.7151 22.611 28.1515 18.6156 27.6708C16.825 27.4013 15.0847 27.433 13.3774 27.6632C9.4844 28.1334 6.03619 29.6324 3.80737 31.8233L28.3553 31.9929Z" fill="#FFBA08"/>
<path d="M16.0299 13.001C15.0962 13.0033 14.2046 14.037 13.5671 15.8563L16.0299 14.8231L18.4907 15.8582C17.8538 14.0396 16.963 13.0053 16.0299 13.001ZM16.0299 15.909L13.1999 17.0984C13.1099 17.474 13.0301 17.867 12.9617 18.2741L16.0299 16.9851L19.0981 18.2761C19.0281 17.8673 18.9476 17.473 18.8559 17.0965L16.0299 15.909ZM16.0299 18.071L12.7976 19.4284C12.7036 20.2628 12.6556 21.1293 12.655 22.0005C12.655 23.6576 12.8309 25.281 13.157 26.6917C13.203 26.6858 13.247 26.6758 13.2937 26.6702C14.0281 26.5717 14.7744 26.5191 15.5279 26.4983V24.5004C15.5179 24.2227 15.7444 23.9938 16.022 23.9906C16.3058 23.9851 16.5374 24.2166 16.5318 24.5004V26.4983C17.2699 26.5164 18.0142 26.5656 18.7699 26.678C18.8149 26.6834 18.858 26.6938 18.9028 26.6995C19.2293 25.2866 19.4031 23.6603 19.4047 22.0005C19.4041 21.1292 19.3557 20.2628 19.2621 19.4284L16.0299 18.071Z" fill="#FFBA08"/>
<path d="M3.4342 4.51288C3.30822 4.52786 3.19255 4.59014 3.11079 4.68715C3.02904 4.78417 2.98726 4.90866 2.99384 5.03536C3.00042 5.16205 3.05495 5.28147 3.14631 5.36949C3.23768 5.45751 3.35901 5.50755 3.48587 5.50939C4.04408 5.50939 4.48977 5.95508 4.48977 6.51329C4.48394 6.58226 4.49252 6.65172 4.51491 6.71721C4.5373 6.7827 4.57303 6.84283 4.61987 6.89379C4.6667 6.94475 4.72373 6.98534 4.78711 7.01316C4.85048 7.04099 4.91881 7.05538 4.98802 7.05538C5.05724 7.05538 5.1258 7.04099 5.18917 7.01316C5.25255 6.98534 5.30935 6.94475 5.35618 6.89379C5.40302 6.84283 5.43898 6.7827 5.46137 6.71721C5.48376 6.65172 5.49211 6.58226 5.48628 6.51329C5.48628 5.41466 4.58446 4.51288 3.48587 4.51288C3.46862 4.51198 3.45144 4.51198 3.4342 4.51288Z" fill="#FFBA08"/>
<path d="M6.49022 4.513C5.39163 4.513 4.48981 5.41479 4.48981 6.51342C4.48398 6.58239 4.49256 6.65184 4.51495 6.71733C4.53735 6.78282 4.57308 6.84295 4.61991 6.89392C4.66675 6.94488 4.72355 6.98546 4.78692 7.01329C4.85029 7.04112 4.91885 7.0555 4.98807 7.0555C5.05728 7.0555 5.12584 7.04112 5.18922 7.01329C5.25259 6.98546 5.30939 6.94488 5.35623 6.89392C5.40306 6.84295 5.43879 6.78282 5.46118 6.71733C5.48358 6.65184 5.49215 6.58239 5.48633 6.51342C5.48633 5.9552 5.93205 5.50952 6.49022 5.50952C6.55919 5.51535 6.62865 5.50677 6.69414 5.48438C6.75963 5.46198 6.81965 5.42625 6.87061 5.37942C6.92157 5.33258 6.96227 5.27567 6.9901 5.21229C7.01793 5.14892 7.03231 5.08048 7.03231 5.01126C7.03231 4.94205 7.01793 4.8736 6.9901 4.81023C6.96227 4.74686 6.92157 4.68994 6.87061 4.6431C6.81965 4.59627 6.75963 4.56054 6.69414 4.53815C6.62865 4.51575 6.55919 4.50718 6.49022 4.513V4.513ZM7.93402 7.01283C7.80804 7.02781 7.6926 7.09021 7.61084 7.18722C7.52909 7.28423 7.48708 7.40861 7.49366 7.53531C7.50024 7.662 7.55477 7.78154 7.64614 7.86956C7.73751 7.95757 7.85907 8.0075 7.98592 8.00934C8.54413 8.00934 8.98982 8.45514 8.98982 9.01336C8.98399 9.08233 8.99257 9.15167 9.01496 9.21716C9.03735 9.28265 9.07308 9.34278 9.11992 9.39374C9.16675 9.4447 9.22355 9.4854 9.28693 9.51323C9.3503 9.54106 9.41886 9.55544 9.48808 9.55544C9.55729 9.55544 9.62562 9.54106 9.68899 9.51323C9.75237 9.4854 9.8094 9.4447 9.85623 9.39374C9.90307 9.34278 9.9388 9.28265 9.96119 9.21716C9.98358 9.15167 9.99216 9.08233 9.98633 9.01336C9.98633 7.91473 9.08451 7.01283 7.98592 7.01283C7.96867 7.01193 7.95127 7.01193 7.93402 7.01283Z" fill="#FFBA08"/>
<path d="M10.99 7.01279C9.89139 7.01279 8.98957 7.91469 8.98957 9.01332C8.98374 9.08229 8.99232 9.15163 9.01471 9.21712C9.0371 9.28261 9.07283 9.34274 9.11967 9.3937C9.1665 9.44466 9.22353 9.48536 9.28691 9.51319C9.35028 9.54102 9.41861 9.55541 9.48782 9.55541C9.55704 9.55541 9.6256 9.54102 9.68897 9.51319C9.75235 9.48536 9.80915 9.44466 9.85598 9.3937C9.90282 9.34274 9.93855 9.28261 9.96094 9.21712C9.98333 9.15163 9.99191 9.08229 9.98608 9.01332C9.98608 8.45511 10.4318 8.00931 10.99 8.00931C11.0589 8.01514 11.1284 8.00667 11.1939 7.98428C11.2594 7.96189 11.3196 7.92604 11.3706 7.87921C11.4216 7.83237 11.462 7.77557 11.4899 7.7122C11.5177 7.64882 11.5321 7.58026 11.5321 7.51105C11.5321 7.44183 11.5177 7.37339 11.4899 7.31002C11.462 7.24664 11.4216 7.18973 11.3706 7.14289C11.3196 7.09606 11.2594 7.06033 11.1939 7.03793C11.1284 7.01554 11.0589 7.00696 10.99 7.01279V7.01279ZM25.0958 3.5108C23.9971 3.5108 23.0953 4.41262 23.0953 5.51121C23.0953 6.60984 23.9971 7.51174 25.0958 7.51174C26.1943 7.51174 27.0962 6.60984 27.0962 5.51121C27.0962 4.41262 26.1943 3.5108 25.0958 3.5108ZM25.0367 0.0119215C24.9126 0.0261532 24.7985 0.0863945 24.7165 0.18066C24.6346 0.274926 24.5907 0.396371 24.5938 0.521252V1.50312C24.5938 1.63625 24.6468 1.76388 24.741 1.85801C24.8351 1.95215 24.9626 2.00507 25.0958 2.00507C25.2289 2.00507 25.3566 1.95215 25.4508 1.85801C25.5449 1.76388 25.5977 1.63625 25.5977 1.50312V0.521252C25.5996 0.449347 25.5861 0.377945 25.5578 0.311799C25.5295 0.245653 25.4874 0.186336 25.4342 0.137985C25.3809 0.0896351 25.3177 0.0534005 25.2492 0.0316442C25.1806 0.00988785 25.1081 0.00312486 25.0367 0.0119215ZM25.0884 9.01009C25.0224 9.0108 24.9573 9.02466 24.8967 9.05069C24.836 9.07672 24.7812 9.11441 24.7352 9.16176C24.6892 9.20911 24.6529 9.26519 24.6286 9.32658C24.6044 9.38797 24.5926 9.45355 24.5938 9.51954V10.5087C24.5938 10.6418 24.6468 10.7694 24.741 10.8636C24.8351 10.9577 24.9626 11.0106 25.0958 11.0106C25.2289 11.0106 25.3566 10.9577 25.4508 10.8636C25.5449 10.7694 25.5977 10.6418 25.5977 10.5087V9.51954C25.599 9.4523 25.5869 9.38548 25.5617 9.32312C25.5366 9.26075 25.499 9.20401 25.4515 9.15645C25.4039 9.1089 25.3473 9.07146 25.2849 9.04631C25.2225 9.02116 25.1556 9.00883 25.0884 9.01009V9.01009ZM29.104 5.00926C28.9708 5.00926 28.8433 5.06219 28.7492 5.15632C28.6551 5.25045 28.602 5.37809 28.602 5.51121C28.602 5.64433 28.6551 5.77209 28.7492 5.86622C28.8433 5.96035 28.9708 6.01316 29.104 6.01316H30.0931C30.2262 6.01316 30.354 5.96035 30.4481 5.86622C30.5422 5.77209 30.595 5.64433 30.595 5.51121C30.595 5.37809 30.5422 5.25045 30.4481 5.15632C30.354 5.06219 30.2262 5.00926 30.0931 5.00926H29.104ZM20.1231 5.00926C19.99 5.00926 19.8624 5.06219 19.7683 5.15632C19.6742 5.25045 19.6211 5.37809 19.6211 5.51121C19.6211 5.64433 19.6742 5.77209 19.7683 5.86622C19.8624 5.96035 19.99 6.01316 20.1231 6.01316H21.1048C21.238 6.01316 21.3657 5.96035 21.4599 5.86622C21.554 5.77209 21.6068 5.64433 21.6068 5.51121C21.6068 5.37809 21.554 5.25045 21.4599 5.15632C21.3657 5.06219 21.238 5.00926 21.1048 5.00926H20.1231ZM21.56 1.47348C21.4595 1.47273 21.3613 1.50231 21.2779 1.55825C21.1944 1.61419 21.1298 1.69399 21.0924 1.7872C21.0549 1.8804 21.0464 1.98262 21.0679 2.08073C21.0895 2.17884 21.14 2.2683 21.213 2.33724L21.9069 3.031C22.0009 3.12497 22.1283 3.17782 22.2612 3.17782C22.3941 3.17782 22.5216 3.12497 22.6155 3.031C22.7095 2.93702 22.7625 2.80957 22.7625 2.67668C22.7625 2.54378 22.7095 2.41633 22.6155 2.32236L21.9217 1.62861C21.875 1.57966 21.8189 1.5406 21.7567 1.51396C21.6946 1.48733 21.6276 1.47362 21.56 1.47359V1.47348ZM27.8712 7.8438C27.7767 7.85385 27.687 7.89071 27.6126 7.94991C27.5383 8.00911 27.4824 8.0883 27.4514 8.17816C27.4204 8.26802 27.4157 8.36483 27.4378 8.45728C27.4599 8.54973 27.508 8.6339 27.5762 8.70006L28.2775 9.39405C28.3208 9.45038 28.3757 9.49671 28.4385 9.53015C28.5012 9.56358 28.5703 9.58334 28.6412 9.58793C28.7122 9.59252 28.7835 9.58187 28.85 9.55679C28.9165 9.53171 28.9769 9.49277 29.0271 9.44249C29.0774 9.39221 29.1165 9.33175 29.1416 9.26522C29.1666 9.19868 29.1771 9.12764 29.1725 9.05669C29.1679 8.98573 29.1482 8.91656 29.1148 8.85381C29.0814 8.79106 29.035 8.73618 28.9787 8.6928L28.2848 7.99143C28.2317 7.93698 28.1669 7.89536 28.0952 7.86975C28.0236 7.84414 27.9471 7.83525 27.8715 7.84368L27.8712 7.8438ZM28.6168 1.47348C28.4878 1.47931 28.3662 1.5349 28.2772 1.62849L27.576 2.32236C27.5294 2.36889 27.4925 2.42408 27.4673 2.48487C27.4421 2.54567 27.429 2.61088 27.429 2.67668C27.429 2.74248 27.4421 2.80758 27.4673 2.86837C27.4925 2.92916 27.5294 2.98447 27.576 3.031C27.6225 3.07752 27.6776 3.11446 27.7384 3.13964C27.7992 3.16482 27.8645 3.1777 27.9303 3.1777C27.9961 3.1777 28.0612 3.16482 28.122 3.13964C28.1828 3.11446 28.2381 3.07752 28.2846 3.031L28.9785 2.33713C29.0526 2.26734 29.1036 2.17659 29.1247 2.07704C29.1459 1.97748 29.1361 1.87381 29.0968 1.77993C29.0575 1.68605 28.9904 1.60645 28.9047 1.55168C28.8189 1.4969 28.7185 1.46964 28.6168 1.47348V1.47348ZM22.2022 7.8438C22.0899 7.85822 21.986 7.91041 21.9071 7.99166L21.2133 8.69291C21.161 8.73797 21.1187 8.79332 21.0889 8.85554C21.0591 8.91775 21.0426 8.98544 21.0403 9.05438C21.0379 9.12332 21.0496 9.192 21.0751 9.25611C21.1006 9.32021 21.1391 9.3784 21.1881 9.42692C21.2372 9.47544 21.2958 9.5133 21.3602 9.53811C21.4246 9.56291 21.4934 9.57405 21.5623 9.57098C21.6312 9.5679 21.6985 9.55066 21.7604 9.52023C21.8223 9.48979 21.8774 9.44686 21.9219 9.39416L22.6158 8.70029C22.6919 8.62723 22.7429 8.53194 22.7616 8.4281C22.7802 8.32425 22.7657 8.21713 22.7198 8.12211C22.6739 8.02709 22.5991 7.949 22.5062 7.89904C22.4133 7.84909 22.307 7.82987 22.2024 7.84403L22.2022 7.8438Z" fill="#FFBA08"/>
</svg>
